# Blender v2.91.0 OBJ File: ''
# www.blender.org
mtllib wide tube mouth.mtl
o Torus
v 0.147688 0.000000 0.000000
v 0.135972 0.028284 0.000000
v 0.107688 0.040000 0.000000
v 0.079506 0.028284 0.000000
v 0.068725 0.000000 0.000000
v 0.079506 -0.028284 0.000000
v 0.107688 -0.040000 0.000000
v 0.135972 -0.028284 0.000000
v 0.144762 0.000000 -0.081195
v 0.132691 0.028284 -0.076189
v 0.103777 0.040000 -0.064102
v 0.075521 0.028284 -0.052015
v 0.065018 0.000000 -0.047008
v 0.075521 -0.028284 -0.052015
v 0.103777 -0.040000 -0.064102
v 0.132691 -0.028284 -0.076189
v 0.123587 0.000000 -0.150030
v 0.112063 0.028284 -0.140779
v 0.085829 0.040000 -0.118445
v 0.062467 0.028284 -0.096110
v 0.053233 0.000000 -0.086859
v 0.062467 -0.028284 -0.096110
v 0.085829 -0.040000 -0.118445
v 0.112063 -0.028284 -0.140779
v 0.071597 0.000000 -0.196023
v 0.066120 0.028284 -0.183936
v 0.052180 0.040000 -0.154755
v 0.038986 0.028284 -0.125574
v 0.033427 0.000000 -0.113487
v 0.038986 -0.028284 -0.125574
v 0.052180 -0.040000 -0.154755
v 0.066120 -0.028284 -0.183936
v 0.001085 0.000000 -0.212174
v 0.002108 0.028284 -0.199091
v 0.005696 0.040000 -0.167506
v 0.007695 0.028284 -0.135921
v 0.007619 0.000000 -0.122838
v 0.007695 -0.028284 -0.135921
v 0.005696 -0.040000 -0.167506
v 0.002108 -0.028284 -0.199091
v -0.063984 0.000000 -0.196023
v -0.057545 0.028284 -0.183936
v -0.040950 0.040000 -0.154755
v -0.024479 0.028284 -0.125574
v -0.019185 0.000000 -0.113487
v -0.024479 -0.028284 -0.125574
v -0.040950 -0.040000 -0.154755
v -0.057545 -0.028284 -0.183936
v -0.112341 0.000000 -0.150030
v -0.100465 0.028284 -0.140779
v -0.074098 0.040000 -0.118444
v -0.049765 0.028284 -0.096110
v -0.040778 0.000000 -0.086859
v -0.049765 -0.028284 -0.096110
v -0.074098 -0.040000 -0.118444
v -0.100465 -0.028284 -0.140779
v -0.132557 0.000000 -0.081196
v -0.120393 0.028284 -0.076189
v -0.091245 0.040000 -0.064102
v -0.063329 0.028284 -0.052015
v -0.053705 0.000000 -0.047008
v -0.063329 -0.028284 -0.052015
v -0.091245 -0.040000 -0.064102
v -0.120393 -0.028284 -0.076189
v -0.134304 0.000000 -0.000000
v -0.122588 0.028284 -0.000000
v -0.094304 0.040000 -0.000000
v -0.067177 0.028284 -0.000000
v -0.057682 0.000000 -0.000000
v -0.067177 -0.028284 -0.000000
v -0.094304 -0.040000 -0.000000
v -0.122588 -0.028284 -0.000000
v -0.132557 0.000000 0.081195
v -0.120393 0.028284 0.076189
v -0.091245 0.040000 0.064102
v -0.063329 0.028284 0.052015
v -0.053705 0.000000 0.047008
v -0.063329 -0.028284 0.052015
v -0.091245 -0.040000 0.064102
v -0.120393 -0.028284 0.076189
v -0.112341 0.000000 0.150030
v -0.100465 0.028284 0.140779
v -0.074098 0.040000 0.118444
v -0.049765 0.028284 0.096110
v -0.040778 0.000000 0.086859
v -0.049765 -0.028284 0.096110
v -0.074098 -0.040000 0.118444
v -0.100465 -0.028284 0.140779
v -0.063984 0.000000 0.196023
v -0.057545 0.028284 0.183936
v -0.040950 0.040000 0.154755
v -0.024479 0.028284 0.125574
v -0.019185 0.000000 0.113487
v -0.024479 -0.028284 0.125574
v -0.040950 -0.040000 0.154755
v -0.057545 -0.028284 0.183936
v 0.001085 0.000000 0.212174
v 0.002108 0.028284 0.199091
v 0.005696 0.040000 0.167506
v 0.007695 0.028284 0.135921
v 0.007619 0.000000 0.122838
v 0.007695 -0.028284 0.135921
v 0.005696 -0.040000 0.167506
v 0.002108 -0.028284 0.199091
v 0.071597 0.000000 0.196023
v 0.066120 0.028284 0.183936
v 0.052180 0.040000 0.154755
v 0.038986 0.028284 0.125574
v 0.033427 0.000000 0.113487
v 0.038986 -0.028284 0.125574
v 0.052180 -0.040000 0.154755
v 0.066120 -0.028284 0.183936
v 0.123587 0.000000 0.150030
v 0.112063 0.028284 0.140779
v 0.085829 0.040000 0.118445
v 0.062467 0.028284 0.096110
v 0.053233 0.000000 0.086859
v 0.062467 -0.028284 0.096110
v 0.085829 -0.040000 0.118445
v 0.112063 -0.028284 0.140779
v 0.144762 0.000000 0.081196
v 0.132691 0.028284 0.076189
v 0.103777 0.040000 0.064102
v 0.075521 0.028284 0.052015
v 0.065018 0.000000 0.047008
v 0.075521 -0.028284 0.052015
v 0.103777 -0.040000 0.064102
v 0.132691 -0.028284 0.076189
vt 0.500000 0.500000
vt 0.562500 0.500000
vt 0.562500 0.625000
vt 0.500000 0.625000
vt 0.562500 0.750000
vt 0.500000 0.750000
vt 0.562500 0.875000
vt 0.500000 0.875000
vt 0.562500 1.000000
vt 0.500000 1.000000
vt 0.500000 0.000000
vt 0.562500 0.000000
vt 0.562500 0.125000
vt 0.500000 0.125000
vt 0.562500 0.250000
vt 0.500000 0.250000
vt 0.562500 0.375000
vt 0.500000 0.375000
vt 0.625000 0.500000
vt 0.625000 0.625000
vt 0.625000 0.750000
vt 0.625000 0.875000
vt 0.625000 1.000000
vt 0.625000 0.000000
vt 0.625000 0.125000
vt 0.625000 0.250000
vt 0.625000 0.375000
vt 0.687500 0.500000
vt 0.687500 0.625000
vt 0.687500 0.750000
vt 0.687500 0.875000
vt 0.687500 1.000000
vt 0.687500 0.000000
vt 0.687500 0.125000
vt 0.687500 0.250000
vt 0.687500 0.375000
vt 0.750000 0.500000
vt 0.750000 0.625000
vt 0.750000 0.750000
vt 0.750000 0.875000
vt 0.750000 1.000000
vt 0.750000 0.000000
vt 0.750000 0.125000
vt 0.750000 0.250000
vt 0.750000 0.375000
vt 0.812500 0.500000
vt 0.812500 0.625000
vt 0.812500 0.750000
vt 0.812500 0.875000
vt 0.812500 1.000000
vt 0.812500 0.000000
vt 0.812500 0.125000
vt 0.812500 0.250000
vt 0.812500 0.375000
vt 0.875000 0.500000
vt 0.875000 0.625000
vt 0.875000 0.750000
vt 0.875000 0.875000
vt 0.875000 1.000000
vt 0.875000 0.000000
vt 0.875000 0.125000
vt 0.875000 0.250000
vt 0.875000 0.375000
vt 0.937500 0.500000
vt 0.937500 0.625000
vt 0.937500 0.750000
vt 0.937500 0.875000
vt 0.937500 1.000000
vt 0.937500 0.000000
vt 0.937500 0.125000
vt 0.937500 0.250000
vt 0.937500 0.375000
vt 1.000000 0.500000
vt 1.000000 0.625000
vt 1.000000 0.750000
vt 1.000000 0.875000
vt 1.000000 1.000000
vt 1.000000 0.000000
vt 1.000000 0.125000
vt 1.000000 0.250000
vt 1.000000 0.375000
vt 0.000000 0.500000
vt 0.062500 0.500000
vt 0.062500 0.625000
vt 0.000000 0.625000
vt 0.062500 0.750000
vt 0.000000 0.750000
vt 0.062500 0.875000
vt 0.000000 0.875000
vt 0.062500 1.000000
vt 0.000000 1.000000
vt 0.000000 0.000000
vt 0.062500 0.000000
vt 0.062500 0.125000
vt 0.000000 0.125000
vt 0.062500 0.250000
vt 0.000000 0.250000
vt 0.062500 0.375000
vt 0.000000 0.375000
vt 0.125000 0.500000
vt 0.125000 0.625000
vt 0.125000 0.750000
vt 0.125000 0.875000
vt 0.125000 1.000000
vt 0.125000 0.000000
vt 0.125000 0.125000
vt 0.125000 0.250000
vt 0.125000 0.375000
vt 0.187500 0.500000
vt 0.187500 0.625000
vt 0.187500 0.750000
vt 0.187500 0.875000
vt 0.187500 1.000000
vt 0.187500 0.000000
vt 0.187500 0.125000
vt 0.187500 0.250000
vt 0.187500 0.375000
vt 0.250000 0.500000
vt 0.250000 0.625000
vt 0.250000 0.750000
vt 0.250000 0.875000
vt 0.250000 1.000000
vt 0.250000 0.000000
vt 0.250000 0.125000
vt 0.250000 0.250000
vt 0.250000 0.375000
vt 0.312500 0.500000
vt 0.312500 0.625000
vt 0.312500 0.750000
vt 0.312500 0.875000
vt 0.312500 1.000000
vt 0.312500 0.000000
vt 0.312500 0.125000
vt 0.312500 0.250000
vt 0.312500 0.375000
vt 0.375000 0.500000
vt 0.375000 0.625000
vt 0.375000 0.750000
vt 0.375000 0.875000
vt 0.375000 1.000000
vt 0.375000 0.000000
vt 0.375000 0.125000
vt 0.375000 0.250000
vt 0.375000 0.375000
vt 0.437500 0.500000
vt 0.437500 0.625000
vt 0.437500 0.750000
vt 0.437500 0.875000
vt 0.437500 1.000000
vt 0.437500 0.000000
vt 0.437500 0.125000
vt 0.437500 0.250000
vt 0.437500 0.375000
vt 0.000000 0.000000
vt 0.000000 0.000000
vt 0.000000 0.000000
vt 0.000000 0.000000
vt 0.000000 0.000000
vt 0.000000 0.000000
vt 0.000000 0.000000
vt 0.000000 0.000000
vt 0.000000 0.000000
vt 0.000000 0.000000
vt 0.000000 0.000000
vt 0.000000 0.000000
vt 0.000000 0.000000
vt 0.000000 0.000000
vt 0.000000 0.000000
vt 0.000000 0.000000
vn 0.9201 0.3901 -0.0363
vn 0.3755 0.9266 -0.0193
vn -0.3786 0.9252 0.0257
vn -0.9314 0.3568 0.0723
vn -0.9314 -0.3568 0.0723
vn -0.3786 -0.9252 0.0257
vn 0.3755 -0.9266 -0.0193
vn 0.9201 -0.3901 -0.0363
vn 0.8625 0.4279 -0.2702
vn 0.3312 0.9374 -0.1074
vn -0.3491 0.9306 0.1100
vn -0.8884 0.3762 0.2629
vn -0.8884 -0.3762 0.2629
vn -0.3491 -0.9306 0.1100
vn 0.3312 -0.9374 -0.1074
vn 0.8625 -0.4279 -0.2702
vn 0.6066 0.4336 -0.6663
vn 0.2401 0.9405 -0.2405
vn -0.2693 0.9342 0.2339
vn -0.7253 0.4008 0.5597
vn -0.7253 -0.4008 0.5597
vn -0.2693 -0.9342 0.2339
vn 0.2401 -0.9405 -0.2405
vn 0.6066 -0.4336 -0.6663
vn 0.2066 0.4113 -0.8878
vn 0.0872 0.9344 -0.3454
vn -0.1014 0.9344 0.3416
vn -0.2970 0.4127 0.8611
vn -0.2970 -0.4127 0.8611
vn -0.1014 -0.9344 0.3416
vn 0.0872 -0.9344 -0.3454
vn 0.2066 -0.4113 -0.8878
vn -0.2209 0.4207 -0.8799
vn -0.0874 0.9389 -0.3330
vn 0.0973 0.9382 0.3322
vn 0.2887 0.4113 0.8646
vn 0.2887 -0.4113 0.8646
vn 0.0973 -0.9382 0.3322
vn -0.0874 -0.9389 -0.3330
vn -0.2209 -0.4207 -0.8799
vn -0.6259 0.4444 -0.6409
vn -0.2396 0.9434 -0.2293
vn 0.2545 0.9403 0.2261
vn 0.7035 0.3994 0.5879
vn 0.7035 -0.3994 0.5879
vn 0.2545 -0.9403 0.2261
vn -0.2396 -0.9434 -0.2293
vn -0.6259 -0.4444 -0.6409
vn -0.8634 0.4324 -0.2598
vn -0.3317 0.9377 -0.1034
vn 0.3466 0.9318 0.1081
vn 0.8886 0.3630 0.2804
vn 0.8886 -0.3630 0.2804
vn 0.3466 -0.9318 0.1081
vn -0.3317 -0.9377 -0.1034
vn -0.8634 -0.4324 -0.2598
vn -0.9203 0.3905 -0.0231
vn -0.3752 0.9268 -0.0141
vn 0.3873 0.9217 0.0230
vn 0.9427 0.3252 0.0745
vn 0.9427 -0.3252 0.0745
vn 0.3873 -0.9217 0.0230
vn -0.3752 -0.9268 -0.0141
vn -0.9203 -0.3905 -0.0231
vn -0.9203 0.3905 0.0231
vn -0.3752 0.9268 0.0141
vn 0.3873 0.9217 -0.0230
vn 0.9427 0.3252 -0.0745
vn 0.9427 -0.3252 -0.0745
vn 0.3873 -0.9217 -0.0230
vn -0.3752 -0.9268 0.0141
vn -0.9203 -0.3905 0.0231
vn -0.8634 0.4324 0.2598
vn -0.3317 0.9377 0.1034
vn 0.3466 0.9318 -0.1081
vn 0.8886 0.3630 -0.2804
vn 0.8886 -0.3630 -0.2804
vn 0.3466 -0.9318 -0.1081
vn -0.3317 -0.9377 0.1034
vn -0.8634 -0.4324 0.2598
vn -0.6259 0.4444 0.6409
vn -0.2396 0.9434 0.2293
vn 0.2545 0.9403 -0.2261
vn 0.7035 0.3994 -0.5879
vn 0.7035 -0.3994 -0.5879
vn 0.2545 -0.9403 -0.2261
vn -0.2396 -0.9434 0.2293
vn -0.6259 -0.4444 0.6409
vn -0.2209 0.4207 0.8799
vn -0.0874 0.9389 0.3330
vn 0.0973 0.9382 -0.3322
vn 0.2887 0.4113 -0.8646
vn 0.2887 -0.4113 -0.8646
vn 0.0973 -0.9382 -0.3322
vn -0.0874 -0.9389 0.3330
vn -0.2209 -0.4207 0.8799
vn 0.2066 0.4113 0.8878
vn 0.0872 0.9344 0.3454
vn -0.1014 0.9344 -0.3416
vn -0.2970 0.4127 -0.8611
vn -0.2970 -0.4127 -0.8611
vn -0.1014 -0.9344 -0.3416
vn 0.0872 -0.9344 0.3454
vn 0.2066 -0.4113 0.8878
vn 0.6066 0.4336 0.6663
vn 0.2401 0.9405 0.2405
vn -0.2693 0.9342 -0.2339
vn -0.7253 0.4008 -0.5597
vn -0.7253 -0.4008 -0.5597
vn -0.2693 -0.9342 -0.2339
vn 0.2401 -0.9405 0.2405
vn 0.6066 -0.4336 0.6663
vn 0.8625 0.4279 0.2702
vn 0.3312 0.9374 0.1074
vn -0.3491 0.9306 -0.1100
vn -0.8884 0.3762 -0.2629
vn -0.8884 -0.3762 -0.2629
vn -0.3491 -0.9306 -0.1100
vn 0.3312 -0.9374 0.1074
vn 0.8625 -0.4279 0.2702
vn 0.9201 0.3901 0.0363
vn 0.3755 0.9266 0.0193
vn -0.3786 0.9252 -0.0257
vn -0.9314 0.3568 -0.0723
vn -0.9314 -0.3568 -0.0723
vn -0.3786 -0.9252 -0.0257
vn 0.3755 -0.9266 0.0193
vn 0.9201 -0.3901 0.0363
vn 0.0000 -1.0000 -0.0000
usemtl None
s off
f 1/1/1 9/2/1 10/3/1 2/4/1
f 2/4/2 10/3/2 11/5/2 3/6/2
f 3/6/3 11/5/3 12/7/3 4/8/3
f 4/8/4 12/7/4 13/9/4 5/10/4
f 5/11/5 13/12/5 14/13/5 6/14/5
f 6/14/6 14/13/6 15/15/6 7/16/6
f 7/16/7 15/15/7 16/17/7 8/18/7
f 8/18/8 16/17/8 9/2/8 1/1/8
f 9/2/9 17/19/9 18/20/9 10/3/9
f 10/3/10 18/20/10 19/21/10 11/5/10
f 11/5/11 19/21/11 20/22/11 12/7/11
f 12/7/12 20/22/12 21/23/12 13/9/12
f 13/12/13 21/24/13 22/25/13 14/13/13
f 14/13/14 22/25/14 23/26/14 15/15/14
f 15/15/15 23/26/15 24/27/15 16/17/15
f 16/17/16 24/27/16 17/19/16 9/2/16
f 17/19/17 25/28/17 26/29/17 18/20/17
f 18/20/18 26/29/18 27/30/18 19/21/18
f 19/21/19 27/30/19 28/31/19 20/22/19
f 20/22/20 28/31/20 29/32/20 21/23/20
f 21/24/21 29/33/21 30/34/21 22/25/21
f 22/25/22 30/34/22 31/35/22 23/26/22
f 23/26/23 31/35/23 32/36/23 24/27/23
f 24/27/24 32/36/24 25/28/24 17/19/24
f 25/28/25 33/37/25 34/38/25 26/29/25
f 26/29/26 34/38/26 35/39/26 27/30/26
f 27/30/27 35/39/27 36/40/27 28/31/27
f 28/31/28 36/40/28 37/41/28 29/32/28
f 29/33/29 37/42/29 38/43/29 30/34/29
f 30/34/30 38/43/30 39/44/30 31/35/30
f 31/35/31 39/44/31 40/45/31 32/36/31
f 32/36/32 40/45/32 33/37/32 25/28/32
f 33/37/33 41/46/33 42/47/33 34/38/33
f 34/38/34 42/47/34 43/48/34 35/39/34
f 35/39/35 43/48/35 44/49/35 36/40/35
f 36/40/36 44/49/36 45/50/36 37/41/36
f 37/42/37 45/51/37 46/52/37 38/43/37
f 38/43/38 46/52/38 47/53/38 39/44/38
f 39/44/39 47/53/39 48/54/39 40/45/39
f 40/45/40 48/54/40 41/46/40 33/37/40
f 41/46/41 49/55/41 50/56/41 42/47/41
f 42/47/42 50/56/42 51/57/42 43/48/42
f 43/48/43 51/57/43 52/58/43 44/49/43
f 44/49/44 52/58/44 53/59/44 45/50/44
f 45/51/45 53/60/45 54/61/45 46/52/45
f 46/52/46 54/61/46 55/62/46 47/53/46
f 47/53/47 55/62/47 56/63/47 48/54/47
f 48/54/48 56/63/48 49/55/48 41/46/48
f 49/55/49 57/64/49 58/65/49 50/56/49
f 50/56/50 58/65/50 59/66/50 51/57/50
f 51/57/51 59/66/51 60/67/51 52/58/51
f 52/58/52 60/67/52 61/68/52 53/59/52
f 53/60/53 61/69/53 62/70/53 54/61/53
f 54/61/54 62/70/54 63/71/54 55/62/54
f 55/62/55 63/71/55 64/72/55 56/63/55
f 56/63/56 64/72/56 57/64/56 49/55/56
f 57/64/57 65/73/57 66/74/57 58/65/57
f 58/65/58 66/74/58 67/75/58 59/66/58
f 59/66/59 67/75/59 68/76/59 60/67/59
f 60/67/60 68/76/60 69/77/60 61/68/60
f 61/69/61 69/78/61 70/79/61 62/70/61
f 62/70/62 70/79/62 71/80/62 63/71/62
f 63/71/63 71/80/63 72/81/63 64/72/63
f 64/72/64 72/81/64 65/73/64 57/64/64
f 65/82/65 73/83/65 74/84/65 66/85/65
f 66/85/66 74/84/66 75/86/66 67/87/66
f 67/87/67 75/86/67 76/88/67 68/89/67
f 68/89/68 76/88/68 77/90/68 69/91/68
f 69/92/69 77/93/69 78/94/69 70/95/69
f 70/95/70 78/94/70 79/96/70 71/97/70
f 71/97/71 79/96/71 80/98/71 72/99/71
f 72/99/72 80/98/72 73/83/72 65/82/72
f 73/83/73 81/100/73 82/101/73 74/84/73
f 74/84/74 82/101/74 83/102/74 75/86/74
f 75/86/75 83/102/75 84/103/75 76/88/75
f 76/88/76 84/103/76 85/104/76 77/90/76
f 77/93/77 85/105/77 86/106/77 78/94/77
f 78/94/78 86/106/78 87/107/78 79/96/78
f 79/96/79 87/107/79 88/108/79 80/98/79
f 80/98/80 88/108/80 81/100/80 73/83/80
f 81/100/81 89/109/81 90/110/81 82/101/81
f 82/101/82 90/110/82 91/111/82 83/102/82
f 83/102/83 91/111/83 92/112/83 84/103/83
f 84/103/84 92/112/84 93/113/84 85/104/84
f 85/105/85 93/114/85 94/115/85 86/106/85
f 86/106/86 94/115/86 95/116/86 87/107/86
f 87/107/87 95/116/87 96/117/87 88/108/87
f 88/108/88 96/117/88 89/109/88 81/100/88
f 89/109/89 97/118/89 98/119/89 90/110/89
f 90/110/90 98/119/90 99/120/90 91/111/90
f 91/111/91 99/120/91 100/121/91 92/112/91
f 92/112/92 100/121/92 101/122/92 93/113/92
f 93/114/93 101/123/93 102/124/93 94/115/93
f 94/115/94 102/124/94 103/125/94 95/116/94
f 95/116/95 103/125/95 104/126/95 96/117/95
f 96/117/96 104/126/96 97/118/96 89/109/96
f 97/118/97 105/127/97 106/128/97 98/119/97
f 98/119/98 106/128/98 107/129/98 99/120/98
f 99/120/99 107/129/99 108/130/99 100/121/99
f 100/121/100 108/130/100 109/131/100 101/122/100
f 101/123/101 109/132/101 110/133/101 102/124/101
f 102/124/102 110/133/102 111/134/102 103/125/102
f 103/125/103 111/134/103 112/135/103 104/126/103
f 104/126/104 112/135/104 105/127/104 97/118/104
f 105/127/105 113/136/105 114/137/105 106/128/105
f 106/128/106 114/137/106 115/138/106 107/129/106
f 107/129/107 115/138/107 116/139/107 108/130/107
f 108/130/108 116/139/108 117/140/108 109/131/108
f 109/132/109 117/141/109 118/142/109 110/133/109
f 110/133/110 118/142/110 119/143/110 111/134/110
f 111/134/111 119/143/111 120/144/111 112/135/111
f 112/135/112 120/144/112 113/136/112 105/127/112
f 113/136/113 121/145/113 122/146/113 114/137/113
f 114/137/114 122/146/114 123/147/114 115/138/114
f 115/138/115 123/147/115 124/148/115 116/139/115
f 116/139/116 124/148/116 125/149/116 117/140/116
f 117/141/117 125/150/117 126/151/117 118/142/117
f 118/142/118 126/151/118 127/152/118 119/143/118
f 119/143/119 127/152/119 128/153/119 120/144/119
f 120/144/120 128/153/120 121/145/120 113/136/120
f 121/145/121 1/1/121 2/4/121 122/146/121
f 122/146/122 2/4/122 3/6/122 123/147/122
f 123/147/123 3/6/123 4/8/123 124/148/123
f 124/148/124 4/8/124 5/10/124 125/149/124
f 125/150/125 5/11/125 6/14/125 126/151/125
f 126/151/126 6/14/126 7/16/126 127/152/126
f 127/152/127 7/16/127 8/18/127 128/153/127
f 128/153/128 8/18/128 1/1/128 121/145/128
f 6/154/129 126/155/129 118/156/129 110/157/129 102/158/129 94/159/129 86/160/129 78/161/129 70/162/129 62/163/129 54/164/129 46/165/129 38/166/129 30/167/129 22/168/129 14/169/129
