# Blender v2.91.0 OBJ File: ''
# www.blender.org
mtllib deepsea2.mtl
o Cylinder_Cylinder.008
v -0.000000 0.081651 -0.233434
v -0.000000 0.314071 -0.317895
v 0.165063 0.081651 -0.165063
v 0.224786 0.314071 -0.224786
v 0.233434 0.081651 0.000000
v 0.317895 0.314071 0.000000
v 0.165063 0.081651 0.165063
v 0.224786 0.314071 0.224786
v -0.000000 0.081651 0.233434
v -0.000000 0.314071 0.317895
v -0.165063 0.081651 0.165063
v -0.224786 0.314071 0.224786
v -0.233434 0.081651 -0.000000
v -0.317895 0.314071 -0.000000
v -0.165063 0.081651 -0.165063
v -0.224786 0.314071 -0.224786
v 0.159648 0.931206 -0.159648
v 0.221951 0.742587 -0.221951
v 0.224786 0.314081 -0.224786
v 0.225777 0.931206 -0.000000
v 0.313886 0.742587 -0.000000
v 0.317895 0.314081 -0.000000
v 0.159648 0.931206 0.159648
v 0.221951 0.742587 0.221951
v 0.224786 0.314081 0.224786
v 0.000000 0.931206 0.225777
v 0.000000 0.742587 0.313886
v -0.000000 0.314081 0.317895
v -0.159648 0.918306 0.159648
v -0.221951 0.742587 0.221951
v -0.224786 0.314081 0.224786
v -0.225777 0.909581 -0.000000
v -0.313886 0.742587 -0.000000
v -0.317895 0.314081 -0.000000
v -0.159648 0.918306 -0.159648
v -0.221951 0.742587 -0.221951
v -0.224786 0.314081 -0.224786
v 0.000000 1.008344 -0.000000
v -0.000000 0.931206 -0.225777
v -0.000000 0.742587 -0.313886
v 0.000000 0.314081 -0.317895
v 0.169578 0.006222 -0.409397
v -0.000000 0.239742 -0.369424
v 0.121734 0.314570 -0.293891
v 0.261222 0.239742 -0.261222
v 0.409397 0.006222 -0.169578
v 0.293891 0.314570 -0.121734
v 0.369424 0.239742 0.000000
v 0.409397 0.006222 0.169578
v 0.293891 0.314570 0.121734
v 0.261222 0.239742 0.261222
v 0.169578 0.006222 0.409397
v 0.121734 0.314570 0.293891
v -0.000000 0.239742 0.369424
v -0.169578 0.006222 0.409396
v -0.121734 0.314570 0.293891
v -0.261222 0.239742 0.261222
v -0.409396 0.006222 0.169578
v -0.293891 0.314570 0.121734
v -0.369424 0.239742 -0.000000
v -0.409397 0.006222 -0.169578
v -0.293891 0.314570 -0.121734
v -0.261222 0.239742 -0.261222
v -0.169578 0.006222 -0.409396
v -0.121734 0.314570 -0.293891
v 0.219383 0.826820 -0.219383
v 0.213609 0.577173 -0.213609
v 0.310254 0.826820 -0.000000
v 0.302088 0.577173 -0.000000
v 0.289659 0.742587 -0.119981
v 0.210671 0.934250 -0.087263
v 0.293891 0.314579 -0.121734
v 0.219383 0.826820 0.219383
v 0.213609 0.577173 0.213609
v 0.293891 0.314579 0.121734
v 0.289659 0.742587 0.119980
v 0.210671 0.934250 0.087263
v 0.000000 0.826820 0.310254
v 0.000000 0.577173 0.302088
v 0.121734 0.314579 0.293891
v 0.119981 0.742587 0.289659
v 0.087263 0.934250 0.210671
v -0.219383 0.824404 0.219383
v -0.213609 0.577173 0.213609
v -0.121734 0.314579 0.293891
v -0.119981 0.742587 0.289659
v -0.087263 0.926098 0.210671
v -0.310254 0.824404 -0.000000
v -0.302088 0.577173 -0.000000
v -0.293891 0.314579 0.121734
v -0.289659 0.742587 0.119981
v -0.210671 0.910076 0.087263
v -0.219383 0.824404 -0.219383
v -0.213609 0.577173 -0.213609
v -0.293891 0.314579 -0.121734
v -0.289659 0.742587 -0.119981
v -0.210671 0.910076 -0.087263
v 0.000000 0.987266 -0.134989
v -0.000000 0.826820 -0.310254
v -0.000000 0.577173 -0.302088
v -0.087263 0.926098 -0.210671
v -0.121734 0.314579 -0.293891
v -0.119981 0.742587 -0.289659
v 0.095452 0.987266 -0.095452
v 0.121734 0.314579 -0.293891
v 0.119981 0.742587 -0.289659
v 0.087263 0.934250 -0.210671
v 0.134989 0.987266 -0.000000
v 0.095452 0.987266 0.095452
v 0.000000 0.987266 0.134989
v -0.095452 0.975137 0.095452
v -0.134989 0.968572 -0.000000
v -0.095452 0.975137 -0.095452
v 0.140626 0.235662 -0.339502
v 0.339502 0.235662 -0.140626
v 0.339502 0.235662 0.140626
v 0.140626 0.235662 0.339502
v -0.140626 0.235662 0.339502
v -0.339502 0.235662 0.140626
v -0.339502 0.235662 -0.140626
v -0.140626 0.235662 -0.339502
v 0.118696 0.828932 -0.286557
v 0.115471 0.577137 -0.278772
v 0.060053 0.980795 -0.144980
v 0.286557 0.828932 -0.118696
v 0.278772 0.577137 -0.115471
v 0.144980 0.980795 -0.060053
v 0.278772 0.577137 0.115471
v 0.144980 0.980795 0.060052
v 0.286557 0.828932 0.118696
v 0.115471 0.577137 0.278772
v 0.060053 0.980795 0.144980
v 0.118696 0.828932 0.286556
v -0.115471 0.577137 0.278772
v -0.060053 0.975898 0.144980
v -0.118696 0.825098 0.286556
v -0.278772 0.577137 0.115471
v -0.144980 0.957706 0.060052
v -0.286556 0.824241 0.118696
v -0.278772 0.577137 -0.115471
v -0.144980 0.957706 -0.060053
v -0.286557 0.824241 -0.118696
v -0.060052 0.975898 -0.144980
v -0.118696 0.825098 -0.286557
v -0.115471 0.577137 -0.278772
v -0.000000 0.046653 -0.000000
v 0.167320 0.043937 -0.287230
v 0.084789 0.043937 -0.321415
v 0.321415 0.043937 -0.084789
v 0.287230 0.043937 -0.167320
v 0.287230 0.043937 0.167320
v 0.321415 0.043937 0.084789
v 0.084789 0.043937 0.321415
v 0.167320 0.043937 0.287230
v -0.167320 0.043937 0.287230
v -0.084789 0.043937 0.321415
v -0.321415 0.043937 0.084789
v -0.287230 0.043937 0.167320
v -0.287230 0.043937 -0.167320
v -0.321415 0.043937 -0.084789
v -0.084789 0.043937 -0.321415
v -0.167320 0.043937 -0.287230
v 0.204698 0.026438 -0.084789
v 0.204698 0.026438 0.084789
v 0.084789 0.026438 0.204698
v -0.084789 0.026438 0.204698
v -0.204698 0.026438 0.084789
v -0.204698 0.026438 -0.084789
v -0.084789 0.026438 -0.204698
v 0.084789 0.026438 -0.204698
v -0.000000 0.035187 -0.263057
v -0.186009 0.035187 -0.186009
v -0.263057 0.035187 -0.000000
v -0.186009 0.035187 0.186009
v -0.000000 0.035187 0.263057
v 0.186009 0.035187 0.186009
v 0.263057 0.035187 0.000000
v 0.186009 0.035187 -0.186009
vt 1.000000 0.000000
vt 1.000000 0.500000
vt 0.934896 0.500000
vt 0.921875 0.000000
vt 0.960938 0.000000
vt 1.000000 1.000000
vt 0.937500 1.000000
vt 0.875000 1.000000
vt 0.861979 0.503472
vt 0.750000 0.000000
vt 0.835938 0.000000
vt 0.798515 0.520062
vt 0.699267 0.167052
vt 0.724634 0.083526
vt 0.812500 1.000000
vt 0.750000 1.000000
vt 0.741802 0.531636
vt 0.697917 0.250000
vt 0.698592 0.208526
vt 0.679012 0.526235
vt 0.622299 0.195216
vt 0.660108 0.222608
vt 0.687500 1.000000
vt 0.625000 1.000000
vt 0.620081 0.531636
vt 0.593750 0.250000
vt 0.608025 0.222608
vt 0.558256 0.526235
vt 0.529900 0.195216
vt 0.561825 0.222608
vt 0.562500 1.000000
vt 0.500000 1.000000
vt 0.498360 0.531636
vt 0.489583 0.250000
vt 0.509742 0.222608
vt 0.437500 0.526235
vt 0.437500 0.195216
vt 0.463542 0.222608
vt 0.437500 1.000000
vt 0.375000 1.000000
vt 0.376640 0.531636
vt 0.385417 0.250000
vt 0.411458 0.222608
vt 0.316744 0.526235
vt 0.345100 0.195216
vt 0.365259 0.222608
vt 0.312500 1.000000
vt 0.250000 1.000000
vt 0.254919 0.531636
vt 0.281250 0.250000
vt 0.313175 0.222608
vt 0.195988 0.526235
vt 0.252701 0.195216
vt 0.266975 0.222608
vt 0.187500 1.000000
vt 0.125000 1.000000
vt 0.133198 0.531636
vt 0.177083 0.250000
vt 0.214892 0.222608
vt 0.076919 0.523534
vt 0.177469 0.180941
vt 0.177276 0.215471
vt 0.062500 1.000000
vt 0.000000 1.000000
vt 0.018229 0.520833
vt 0.145833 0.166667
vt 0.161651 0.173804
vt 0.750000 0.666667
vt 0.750000 0.754244
vt 0.687500 0.751543
vt 0.687500 0.666667
vt 0.750000 0.888889
vt 0.687500 0.836420
vt 0.625000 0.888889
vt 0.625000 0.754244
vt 0.625000 0.666667
vt 0.750000 0.500000
vt 0.750000 0.583333
vt 0.687500 0.583333
vt 0.687500 0.500000
vt 0.625000 0.583333
vt 0.625000 0.500000
vt 0.718750 0.923611
vt 0.687500 0.891204
vt 0.687500 1.000000
vt 0.656250 0.923611
vt 0.562500 0.751543
vt 0.562500 0.666667
vt 0.562500 0.836420
vt 0.500000 0.888889
vt 0.500000 0.754244
vt 0.500000 0.666667
vt 0.562500 0.583333
vt 0.562500 0.500000
vt 0.500000 0.583333
vt 0.500000 0.500000
vt 0.593750 0.923611
vt 0.562500 0.891204
vt 0.562500 1.000000
vt 0.531250 0.923611
vt 0.437500 0.583333
vt 0.437500 0.500000
vt 0.437500 0.666667
vt 0.375000 0.666667
vt 0.375000 0.583333
vt 0.375000 0.500000
vt 0.468750 0.923611
vt 0.437500 0.891204
vt 0.437500 0.836420
vt 0.437500 1.000000
vt 0.406250 0.923611
vt 0.375000 0.888889
vt 0.437500 0.751543
vt 0.375000 0.754244
vt 0.312500 0.583333
vt 0.312500 0.500000
vt 0.312500 0.666667
vt 0.250000 0.666667
vt 0.250000 0.583333
vt 0.250000 0.500000
vt 0.343750 0.923611
vt 0.312500 0.891204
vt 0.312500 0.836420
vt 0.312500 1.000000
vt 0.281250 0.923611
vt 0.250000 0.888889
vt 0.312500 0.751543
vt 0.250000 0.754244
vt 0.187500 0.583333
vt 0.187500 0.500000
vt 0.187500 0.666667
vt 0.125000 0.666667
vt 0.125000 0.583333
vt 0.125000 0.500000
vt 0.218750 0.923611
vt 0.187500 0.891204
vt 0.187500 0.836420
vt 0.187500 1.000000
vt 0.156250 0.923611
vt 0.125000 0.888889
vt 0.187500 0.751543
vt 0.125000 0.754244
vt 0.062500 0.583333
vt 0.062500 0.500000
vt 0.062500 0.666667
vt 0.000000 0.666667
vt 0.000000 0.583333
vt 0.000000 0.500000
vt 0.093750 0.923611
vt 0.062826 0.889468
vt 0.063368 0.831790
vt 0.062500 1.000000
vt 0.032552 0.916667
vt 0.010417 0.833333
vt 0.062717 0.750386
vt 0.001302 0.750000
vt 1.000000 0.500000
vt 1.000000 0.583333
vt 0.937500 0.583333
vt 0.937500 0.500000
vt 1.000000 0.666667
vt 0.937500 0.666667
vt 0.875000 0.666667
vt 0.875000 0.583333
vt 0.875000 0.500000
vt 0.989583 0.833333
vt 0.967448 0.916667
vt 0.937174 0.889468
vt 0.936632 0.831790
vt 0.937500 1.000000
vt 0.906250 0.923611
vt 0.875000 0.888889
vt 0.998698 0.750000
vt 0.937283 0.750386
vt 0.875000 0.754244
vt 0.843750 0.923611
vt 0.812500 0.891204
vt 0.812500 0.836420
vt 0.812500 1.000000
vt 0.781250 0.923611
vt 0.812500 0.751543
vt 0.812500 0.666667
vt 0.812500 0.583333
vt 0.812500 0.500000
vt 0.581755 0.058891
vt 0.568459 0.107364
vt 0.437650 0.047676
vt 0.438877 0.034255
vt 0.614283 0.164986
vt 0.529975 0.121446
vt 0.545900 0.172027
vt 0.483775 0.121446
vt 0.473658 0.172027
vt 0.437575 0.121446
vt 0.401417 0.172027
vt 0.391375 0.121446
vt 0.329175 0.172027
vt 0.345175 0.121446
vt 0.261226 0.168458
vt 0.307560 0.114309
vt 0.300264 0.104029
vt 0.292969 0.093750
vt 0.440104 0.020833
vt 0.595052 0.010417
vn -0.4567 -0.1826 -0.8707
vn 0.1762 0.5424 -0.8214
vn 0.4562 0.5424 -0.7054
vn 0.9386 -0.1826 -0.2927
vn 0.2927 -0.1826 -0.9386
vn 0.7054 0.5424 -0.4562
vn 0.8214 0.5424 -0.1762
vn 0.8707 -0.1826 0.4567
vn 0.8707 -0.1826 -0.4567
vn 0.8214 0.5424 0.1762
vn 0.7054 0.5424 0.4562
vn 0.2927 -0.1826 0.9386
vn 0.9386 -0.1826 0.2927
vn 0.4562 0.5424 0.7054
vn 0.1762 0.5424 0.8214
vn -0.4567 -0.1826 0.8707
vn 0.4567 -0.1826 0.8707
vn -0.1762 0.5424 0.8214
vn -0.4562 0.5424 0.7054
vn -0.9386 -0.1826 0.2927
vn -0.2927 -0.1826 0.9386
vn -0.7054 0.5424 0.4562
vn -0.8214 0.5424 0.1762
vn -0.8707 -0.1826 -0.4567
vn -0.8707 -0.1826 0.4567
vn -0.8214 0.5424 -0.1762
vn -0.7054 0.5424 -0.4562
vn -0.2927 -0.1826 -0.9386
vn -0.9386 -0.1826 -0.2927
vn -0.4562 0.5424 -0.7054
vn -0.1762 0.5424 -0.8214
vn 0.4567 -0.1826 -0.8707
vn 0.1964 0.0402 -0.9797
vn 0.1312 0.6145 -0.7779
vn 0.4573 0.6145 -0.6428
vn 0.5539 0.0402 -0.8316
vn 0.1952 0.0599 -0.9789
vn 0.1974 -0.0697 -0.9778
vn 0.5518 -0.0697 -0.8310
vn 0.5542 0.0599 -0.8302
vn 0.0384 0.8387 -0.5433
vn 0.0662 0.9849 -0.1597
vn 0.3570 0.8387 -0.4113
vn 0.8316 0.0402 -0.5539
vn 0.6428 0.6145 -0.4573
vn 0.7779 0.6145 -0.1312
vn 0.9797 0.0402 -0.1964
vn 0.8302 0.0599 -0.5542
vn 0.8310 -0.0697 -0.5518
vn 0.9778 -0.0697 -0.1974
vn 0.9789 0.0599 -0.1952
vn 0.4113 0.8387 -0.3570
vn 0.1597 0.9849 -0.0662
vn 0.5433 0.8387 -0.0384
vn 0.9789 0.0599 0.1952
vn 0.9778 -0.0697 0.1974
vn 0.8310 -0.0697 0.5518
vn 0.8302 0.0599 0.5542
vn 0.5433 0.8387 0.0384
vn 0.1597 0.9849 0.0662
vn 0.4113 0.8387 0.3570
vn 0.9797 0.0402 0.1964
vn 0.7779 0.6145 0.1312
vn 0.6428 0.6145 0.4573
vn 0.8316 0.0402 0.5539
vn 0.5542 0.0599 0.8302
vn 0.5518 -0.0697 0.8310
vn 0.1974 -0.0697 0.9778
vn 0.1952 0.0599 0.9789
vn 0.3570 0.8387 0.4113
vn 0.0662 0.9849 0.1597
vn 0.0384 0.8387 0.5433
vn 0.5539 0.0402 0.8316
vn 0.4573 0.6145 0.6428
vn 0.1312 0.6145 0.7779
vn 0.1964 0.0402 0.9797
vn -0.1952 0.0599 0.9789
vn -0.1974 -0.0697 0.9778
vn -0.5518 -0.0697 0.8310
vn -0.5542 0.0599 0.8302
vn -0.1119 0.8320 0.5434
vn -0.1825 0.9729 0.1421
vn -0.4203 0.8238 0.3805
vn -0.1970 0.0411 0.9795
vn -0.1648 0.6226 0.7650
vn -0.4535 0.6422 0.6180
vn -0.5537 0.0417 0.8317
vn -0.8302 0.0599 0.5542
vn -0.8310 -0.0697 0.5518
vn -0.9778 -0.0697 0.1974
vn -0.9789 0.0599 0.1952
vn -0.4889 0.8334 0.2577
vn -0.3063 0.9499 0.0615
vn -0.5521 0.8301 0.0776
vn -0.8318 0.0419 0.5536
vn -0.6259 0.6726 0.3948
vn -0.7107 0.6908 0.1328
vn -0.9796 0.0419 0.1967
vn -0.9789 0.0599 -0.1952
vn -0.9778 -0.0697 -0.1974
vn -0.8310 -0.0697 -0.5518
vn -0.8302 0.0599 -0.5542
vn -0.5521 0.8301 -0.0776
vn -0.3063 0.9499 -0.0615
vn -0.4889 0.8334 -0.2577
vn -0.9796 0.0419 -0.1967
vn -0.7107 0.6909 -0.1328
vn -0.6259 0.6726 -0.3948
vn -0.8318 0.0419 -0.5536
vn -0.4203 0.8238 -0.3805
vn -0.1825 0.9729 -0.1421
vn -0.1119 0.8320 -0.5434
vn -0.5537 0.0417 -0.8317
vn -0.4535 0.6422 -0.6180
vn -0.1648 0.6226 -0.7650
vn -0.1970 0.0411 -0.9795
vn -0.5542 0.0599 -0.8302
vn -0.5518 -0.0697 -0.8310
vn -0.1974 -0.0697 -0.9778
vn -0.1952 0.0599 -0.9789
vn -0.0308 -0.9991 0.0308
vn -0.0435 -0.9991 0.0000
vn -0.0308 -0.9991 -0.0308
vn 0.0000 -0.9991 -0.0435
vn 0.0308 -0.9991 -0.0308
vn 0.0435 -0.9991 0.0000
vn 0.0308 -0.9991 0.0308
vn 0.0000 -0.9991 0.0435
vn 0.2846 -0.9481 -0.1421
vn -0.0000 0.5376 -0.8432
vn -0.2846 -0.9481 -0.1421
vn 0.1007 -0.9481 -0.3017
vn -0.5962 0.5376 -0.5962
vn -0.3017 -0.9481 0.1007
vn -0.1421 -0.9481 -0.2846
vn -0.8432 0.5376 0.0000
vn -0.1421 -0.9481 0.2846
vn -0.3017 -0.9481 -0.1007
vn -0.5962 0.5376 0.5962
vn 0.1007 -0.9481 0.3017
vn -0.2846 -0.9481 0.1421
vn 0.0000 0.5376 0.8432
vn 0.2846 -0.9481 0.1421
vn -0.1007 -0.9481 0.3017
vn 0.5962 0.5376 0.5962
vn 0.3017 -0.9481 -0.1007
vn 0.1421 -0.9481 0.2846
vn 0.8432 0.5376 0.0000
vn 0.1421 -0.9481 -0.2846
vn 0.3017 -0.9481 0.1007
vn 0.5962 0.5376 -0.5962
vn -0.1007 -0.9481 -0.3017
usemtl None
s off
f 1/1/1 43/2/1 114/3/1 42/4/1 148/5/1
f 43/2/2 2/6/2 44/7/2 114/3/2
f 114/3/3 44/7/3 4/8/3 45/9/3
f 42/4/4 114/3/4 45/9/4 3/10/4 147/11/4
f 3/10/5 45/9/5 115/12/5 46/13/5 150/14/5
f 45/9/6 4/8/6 47/15/6 115/12/6
f 115/12/7 47/15/7 6/16/7 48/17/7
f 46/13/8 115/12/8 48/17/8 5/18/8 149/19/8
f 5/18/9 48/17/9 116/20/9 49/21/9 152/22/9
f 48/17/10 6/16/10 50/23/10 116/20/10
f 116/20/11 50/23/11 8/24/11 51/25/11
f 49/21/12 116/20/12 51/25/12 7/26/12 151/27/12
f 7/26/13 51/25/13 117/28/13 52/29/13 154/30/13
f 51/25/14 8/24/14 53/31/14 117/28/14
f 117/28/15 53/31/15 10/32/15 54/33/15
f 52/29/16 117/28/16 54/33/16 9/34/16 153/35/16
f 9/34/17 54/33/17 118/36/17 55/37/17 156/38/17
f 54/33/18 10/32/18 56/39/18 118/36/18
f 118/36/19 56/39/19 12/40/19 57/41/19
f 55/37/20 118/36/20 57/41/20 11/42/20 155/43/20
f 11/42/21 57/41/21 119/44/21 58/45/21 158/46/21
f 57/41/22 12/40/22 59/47/22 119/44/22
f 119/44/23 59/47/23 14/48/23 60/49/23
f 58/45/24 119/44/24 60/49/24 13/50/24 157/51/24
f 13/50/25 60/49/25 120/52/25 61/53/25 160/54/25
f 60/49/26 14/48/26 62/55/26 120/52/26
f 120/52/27 62/55/27 16/56/27 63/57/27
f 61/53/28 120/52/28 63/57/28 15/58/28 159/59/28
f 15/58/29 63/57/29 121/60/29 64/61/29 162/62/29
f 63/57/30 16/56/30 65/63/30 121/60/30
f 121/60/31 65/63/31 2/64/31 43/65/31
f 64/61/32 121/60/32 43/65/32 1/66/32 161/67/32
f 40/68/33 99/69/33 122/70/33 106/71/33
f 99/69/34 39/72/34 107/73/34 122/70/34
f 122/70/35 107/73/35 17/74/35 66/75/35
f 106/71/36 122/70/36 66/75/36 18/76/36
f 41/77/37 100/78/37 123/79/37 105/80/37
f 100/78/38 40/68/38 106/71/38 123/79/38
f 123/79/39 106/71/39 18/76/39 67/81/39
f 105/80/40 123/79/40 67/81/40 19/82/40
f 39/72/41 98/83/41 124/84/41 107/73/41
f 38/85/42 104/86/42 124/84/42 98/83/42
f 17/74/43 107/73/43 124/84/43 104/86/43
f 18/76/44 66/75/44 125/87/44 70/88/44
f 66/75/45 17/74/45 71/89/45 125/87/45
f 125/87/46 71/89/46 20/90/46 68/91/46
f 70/88/47 125/87/47 68/91/47 21/92/47
f 19/82/48 67/81/48 126/93/48 72/94/48
f 67/81/49 18/76/49 70/88/49 126/93/49
f 126/93/50 70/88/50 21/92/50 69/95/50
f 72/94/51 126/93/51 69/95/51 22/96/51
f 17/74/52 104/97/52 127/98/52 71/89/52
f 38/99/53 108/100/53 127/98/53 104/97/53
f 20/90/54 71/89/54 127/98/54 108/100/54
f 22/96/55 69/95/55 128/101/55 75/102/55
f 69/95/56 21/92/56 76/103/56 128/101/56
f 128/101/57 76/103/57 24/104/57 74/105/57
f 75/102/58 128/101/58 74/105/58 25/106/58
f 20/90/59 108/107/59 129/108/59 77/109/59
f 38/110/60 109/111/60 129/108/60 108/107/60
f 23/112/61 77/109/61 129/108/61 109/111/61
f 21/92/62 68/91/62 130/113/62 76/103/62
f 68/91/63 20/90/63 77/109/63 130/113/63
f 130/113/64 77/109/64 23/112/64 73/114/64
f 76/103/65 130/113/65 73/114/65 24/104/65
f 25/106/66 74/105/66 131/115/66 80/116/66
f 74/105/67 24/104/67 81/117/67 131/115/67
f 131/115/68 81/117/68 27/118/68 79/119/68
f 80/116/69 131/115/69 79/119/69 28/120/69
f 23/112/70 109/121/70 132/122/70 82/123/70
f 38/124/71 110/125/71 132/122/71 109/121/71
f 26/126/72 82/123/72 132/122/72 110/125/72
f 24/104/73 73/114/73 133/127/73 81/117/73
f 73/114/74 23/112/74 82/123/74 133/127/74
f 133/127/75 82/123/75 26/126/75 78/128/75
f 81/117/76 133/127/76 78/128/76 27/118/76
f 28/120/77 79/119/77 134/129/77 85/130/77
f 79/119/78 27/118/78 86/131/78 134/129/78
f 134/129/79 86/131/79 30/132/79 84/133/79
f 85/130/80 134/129/80 84/133/80 31/134/80
f 26/126/81 110/135/81 135/136/81 87/137/81
f 38/138/82 111/139/82 135/136/82 110/135/82
f 29/140/83 87/137/83 135/136/83 111/139/83
f 27/118/84 78/128/84 136/141/84 86/131/84
f 78/128/85 26/126/85 87/137/85 136/141/85
f 136/141/86 87/137/86 29/140/86 83/142/86
f 86/131/87 136/141/87 83/142/87 30/132/87
f 31/134/88 84/133/88 137/143/88 90/144/88
f 84/133/89 30/132/89 91/145/89 137/143/89
f 137/143/90 91/145/90 33/146/90 89/147/90
f 90/144/91 137/143/91 89/147/91 34/148/91
f 29/140/92 111/149/92 138/150/92 92/151/92
f 38/152/93 112/153/93 138/150/93 111/149/93
f 32/154/94 92/151/94 138/150/94 112/153/94
f 30/132/95 83/142/95 139/155/95 91/145/95
f 83/142/96 29/140/96 92/151/96 139/155/96
f 139/155/97 92/151/97 32/154/97 88/156/97
f 91/145/98 139/155/98 88/156/98 33/146/98
f 34/157/99 89/158/99 140/159/99 95/160/99
f 89/158/100 33/161/100 96/162/100 140/159/100
f 140/159/101 96/162/101 36/163/101 94/164/101
f 95/160/102 140/159/102 94/164/102 37/165/102
f 32/166/103 112/167/103 141/168/103 97/169/103
f 38/170/104 113/171/104 141/168/104 112/167/104
f 35/172/105 97/169/105 141/168/105 113/171/105
f 33/161/106 88/173/106 142/174/106 96/162/106
f 88/173/107 32/166/107 97/169/107 142/174/107
f 142/174/108 97/169/108 35/172/108 93/175/108
f 96/162/109 142/174/109 93/175/109 36/163/109
f 35/172/110 113/176/110 143/177/110 101/178/110
f 38/179/111 98/180/111 143/177/111 113/176/111
f 39/72/112 101/178/112 143/177/112 98/180/112
f 36/163/113 93/175/113 144/181/113 103/182/113
f 93/175/114 35/172/114 101/178/114 144/181/114
f 144/181/115 101/178/115 39/72/115 99/69/115
f 103/182/116 144/181/116 99/69/116 40/68/116
f 37/165/117 94/164/117 145/183/117 102/184/117
f 94/164/118 36/163/118 103/182/118 145/183/118
f 145/183/119 103/182/119 40/68/119 100/78/119
f 102/184/120 145/183/120 100/78/120 41/77/120
f 178/185/121 163/186/121 146/187/121 170/188/121
f 177/189/122 164/190/122 146/187/122 163/186/122
f 176/191/123 165/192/123 146/187/123 164/190/123
f 175/193/124 166/194/124 146/187/124 165/192/124
f 174/195/125 167/196/125 146/187/125 166/194/125
f 173/197/126 168/198/126 146/187/126 167/196/126
f 172/199/127 169/200/127 146/187/127 168/198/127
f 171/201/128 170/188/128 146/187/128 169/200/128
f 161/67/129 171/201/129 169/200/129 64/61/129
f 1/66/130 148/202/130 171/201/130 161/67/130
f 148/202/131 42/203/131 170/188/131 171/201/131
f 159/59/132 172/199/132 168/198/132 61/53/132
f 15/58/133 162/62/133 172/199/133 159/59/133
f 162/62/134 64/61/134 169/200/134 172/199/134
f 157/51/135 173/197/135 167/196/135 58/45/135
f 13/50/136 160/54/136 173/197/136 157/51/136
f 160/54/137 61/53/137 168/198/137 173/197/137
f 155/43/138 174/195/138 166/194/138 55/37/138
f 11/42/139 158/46/139 174/195/139 155/43/139
f 158/46/140 58/45/140 167/196/140 174/195/140
f 153/35/141 175/193/141 165/192/141 52/29/141
f 9/34/142 156/38/142 175/193/142 153/35/142
f 156/38/143 55/37/143 166/194/143 175/193/143
f 151/27/144 176/191/144 164/190/144 49/21/144
f 7/26/145 154/30/145 176/191/145 151/27/145
f 154/30/146 52/29/146 165/192/146 176/191/146
f 149/19/147 177/189/147 163/186/147 46/13/147
f 5/18/148 152/22/148 177/189/148 149/19/148
f 152/22/149 49/21/149 164/190/149 177/189/149
f 147/204/150 178/185/150 170/188/150 42/203/150
f 3/10/151 150/14/151 178/185/151 147/204/151
f 150/14/152 46/13/152 163/186/152 178/185/152
